<svg width="40" height="26" viewBox="-7 0 22 26" fill="none" xmlns="http://www.w3.org/2000/svg">
<path d="M11 9.5C11.8284 9.5 12.5 8.82843 12.5 8C12.5 7.17157 11.8284 6.5 11 6.5C10.1716 6.5 9.5 7.17157 9.5 8C9.5 8.82843 10.1716 9.5 11 9.5Z" fill="#3590F5"/>
<path d="M20.8699 7.49999C20.2299 6.38999 16.7099 0.819994 10.7299 0.999994C5.19995 1.13999 1.99995 5.99999 1.12995 7.49999C1.04218 7.65201 0.995972 7.82446 0.995972 7.99999C0.995972 8.17553 1.04218 8.34797 1.12995 8.49999C1.75995 9.58999 5.12995 15 11.0199 15H11.2699C16.7999 14.86 20.0099 9.99999 20.8699 8.49999C20.9577 8.34797 21.0039 8.17553 21.0039 7.99999C21.0039 7.82446 20.9577 7.65201 20.8699 7.49999ZM10.9999 11.5C10.3077 11.5 9.63102 11.2947 9.05545 10.9101C8.47988 10.5256 8.03127 9.97893 7.76637 9.33939C7.50146 8.69984 7.43215 7.99611 7.5672 7.31718C7.70225 6.63824 8.03559 6.0146 8.52507 5.52512C9.01456 5.03564 9.6382 4.70229 10.3171 4.56724C10.9961 4.4322 11.6998 4.50151 12.3393 4.76641C12.9789 5.03132 13.5255 5.47993 13.9101 6.0555C14.2947 6.63107 14.4999 7.30776 14.4999 7.99999C14.4999 8.92825 14.1312 9.81849 13.4748 10.4749C12.8184 11.1312 11.9282 11.5 10.9999 11.5Z" fill="#3590F5"/>
</svg>
 