<svg width="35" height="26" viewBox="-6 3 28 30" fill="none" xmlns="http://www.w3.org/2000/svg">
<path d="M12 14.2251C12.8284 14.2251 13.5 13.5175 13.5 12.6445C13.5 11.7716 12.8284 11.064 12 11.064C11.1716 11.064 10.5 11.7716 10.5 12.6445C10.5 13.5175 11.1716 14.2251 12 14.2251Z" fill="#3590F5"/>
<path d="M15.29 19.0932L14 17.6813L13.93 17.6075L12.66 16.2693C12.4585 16.3065 12.2546 16.3276 12.05 16.3325C11.5862 16.3395 11.1257 16.2493 10.6953 16.067C10.2648 15.8848 9.87307 15.6143 9.54275 15.2711C9.21243 14.928 8.95014 14.519 8.77113 14.0681C8.59212 13.6172 8.49996 13.1333 8.50001 12.6445C8.50465 12.429 8.5247 12.2141 8.56001 12.0018L6.56001 9.89434L5.00001 8.29269C3.87133 9.41328 2.90442 10.7019 2.13001 12.1177C2.04224 12.2778 1.99603 12.4596 1.99603 12.6445C1.99603 12.8295 2.04224 13.0112 2.13001 13.1714C2.76001 14.3199 6.13001 20.0205 12.02 20.0205H12.27C13.3776 19.9859 14.4708 19.7469 15.5 19.3145L15.29 19.0932Z" fill="#3590F5"/>
<path d="M8.59 6.06935L11.39 9.01975C11.5915 8.98254 11.7954 8.96141 12 8.95652C12.9283 8.95652 13.8185 9.34508 14.4749 10.0367C15.1313 10.7283 15.5 11.6664 15.5 12.6445C15.4954 12.8601 15.4753 13.0749 15.44 13.2873L18.12 16.1112L18.96 16.9963C20.1028 15.8787 21.0834 14.5899 21.87 13.1714C21.9578 13.0112 22.004 12.8295 22.004 12.6445C22.004 12.4595 21.9578 12.2778 21.87 12.1177C21.23 10.948 17.71 5.07887 11.73 5.26853C10.6225 5.30315 9.52924 5.5421 8.5 5.97452L8.59 6.06935Z" fill="#3590F5"/>
<path d="M20.71 20.3261L19.41 18.9668L17.41 16.8594L7.89 6.81752L6.42 5.26856L4.71 3.46672C4.61676 3.36847 4.50607 3.29054 4.38425 3.23737C4.26243 3.1842 4.13186 3.15683 4 3.15683C3.86814 3.15683 3.73758 3.1842 3.61575 3.23737C3.49393 3.29054 3.38324 3.36847 3.29 3.46672C3.1017 3.66514 2.99591 3.93425 2.99591 4.21485C2.99591 4.49546 3.1017 4.76457 3.29 4.96299L5.53 7.37599L7.28 9.16729L14.59 16.8594L14.66 16.9331L16 18.3451L16.59 18.9668L19.29 21.8224C19.383 21.9211 19.4936 21.9995 19.6154 22.053C19.7373 22.1065 19.868 22.134 20 22.134C20.132 22.134 20.2627 22.1065 20.3846 22.053C20.5064 21.9995 20.617 21.9211 20.71 21.8224C20.8037 21.7244 20.8781 21.6079 20.9289 21.4795C20.9797 21.3511 21.0058 21.2133 21.0058 21.0742C21.0058 20.9351 20.9797 20.7974 20.9289 20.669C20.8781 20.5406 20.8037 20.424 20.71 20.3261Z" fill="#3590F5"/>
</svg>
