<svg width="21" height="21" viewBox="0 0 21 21" fill="none" xmlns="http://www.w3.org/2000/svg">
<path d="M10.5 14C10.9833 14 11.375 13.6082 11.375 13.125C11.375 12.6418 10.9833 12.25 10.5 12.25C10.0168 12.25 9.62503 12.6418 9.62503 13.125C9.62503 13.6082 10.0168 14 10.5 14Z" fill="#9CBCE0"/>
<path d="M14.875 6.99994H14V5.34619C14 4.41793 13.6312 3.5277 12.9748 2.87132C12.3185 2.21494 11.4282 1.84619 10.5 1.84619C9.57171 1.84619 8.68147 2.21494 8.0251 2.87132C7.36872 3.5277 6.99997 4.41793 6.99997 5.34619V6.99994H6.12497C5.42878 6.99994 4.7611 7.2765 4.26881 7.76879C3.77653 8.26107 3.49997 8.92875 3.49997 9.62494V16.6249C3.49997 17.3211 3.77653 17.9888 4.26881 18.4811C4.7611 18.9734 5.42878 19.2499 6.12497 19.2499H14.875C15.5712 19.2499 16.2388 18.9734 16.7311 18.4811C17.2234 17.9888 17.5 17.3211 17.5 16.6249V9.62494C17.5 8.92875 17.2234 8.26107 16.7311 7.76879C16.2388 7.2765 15.5712 6.99994 14.875 6.99994ZM8.74997 5.34619C8.7382 4.86958 8.91574 4.40771 9.24372 4.06169C9.5717 3.71567 10.0234 3.51368 10.5 3.49994C10.9765 3.51368 11.4282 3.71567 11.7562 4.06169C12.0842 4.40771 12.2617 4.86958 12.25 5.34619V6.99994H8.74997V5.34619ZM10.5 15.7499C9.98079 15.7499 9.47328 15.596 9.0416 15.3076C8.60992 15.0191 8.27347 14.6091 8.07479 14.1295C7.87611 13.6498 7.82412 13.122 7.92541 12.6128C8.02669 12.1036 8.2767 11.6359 8.64381 11.2688C9.01093 10.9017 9.47866 10.6517 9.98786 10.5504C10.4971 10.4491 11.0249 10.5011 11.5045 10.6998C11.9842 10.8984 12.3941 11.2349 12.6826 11.6666C12.971 12.0982 13.125 12.6058 13.125 13.1249C13.125 13.8211 12.8484 14.4888 12.3561 14.9811C11.8638 15.4734 11.1962 15.7499 10.5 15.7499Z" fill="#9CBCE0"/>
</svg>
