<svg width="19" height="19" viewBox="0 0 19 19" fill="none" xmlns="http://www.w3.org/2000/svg">
<path d="M16.6804 4.14046C15.4058 4.01379 14.1313 3.91879 12.8488 3.84754V3.83962L12.6746 2.81046C12.5558 2.08212 12.3817 0.989624 10.5292 0.989624H8.455C6.61042 0.989624 6.43625 2.03462 6.30958 2.80254L6.14333 3.81587C5.40708 3.86337 4.67083 3.91087 3.93458 3.98212L2.31958 4.14046C1.98708 4.17212 1.74958 4.46504 1.78125 4.78962C1.81292 5.11421 2.09792 5.35171 2.43042 5.32004L4.04542 5.16171C8.19375 4.75004 12.3738 4.90837 16.5696 5.32796H16.6329C16.9338 5.32796 17.195 5.09837 17.2267 4.78962C17.2386 4.63148 17.1881 4.47496 17.086 4.35361C16.9839 4.23226 16.8383 4.15574 16.6804 4.14046ZM15.2238 6.44421C15.0338 6.24629 14.7725 6.13546 14.5033 6.13546H4.49667C4.2275 6.13546 3.95833 6.24629 3.77625 6.44421C3.59417 6.64212 3.49125 6.91129 3.50708 7.18837L3.99792 15.3109C4.085 16.5142 4.19583 18.0184 6.95875 18.0184H12.0413C14.8042 18.0184 14.915 16.5221 15.0021 15.3109L15.4929 7.19629C15.5088 6.91129 15.4058 6.64212 15.2238 6.44421ZM10.8142 14.0521H8.17792C7.85333 14.0521 7.58417 13.783 7.58417 13.4584C7.58417 13.1338 7.85333 12.8646 8.17792 12.8646H10.8142C11.1388 12.8646 11.4079 13.1338 11.4079 13.4584C11.4079 13.783 11.1388 14.0521 10.8142 14.0521ZM11.4792 10.8855H7.52083C7.19625 10.8855 6.92708 10.6163 6.92708 10.2917C6.92708 9.96712 7.19625 9.69796 7.52083 9.69796H11.4792C11.8038 9.69796 12.0729 9.96712 12.0729 10.2917C12.0729 10.6163 11.8038 10.8855 11.4792 10.8855Z" fill="#F58989"/>
</svg>
